<svg version="1.1" id="Layer_1" xmlns="http://www.w3.org/2000/svg" xmlns:xlink="http://www.w3.org/1999/xlink" x="0px" y="0px"
	 width="100%" viewBox="0 0 920 992" enable-background="new 0 0 920 992" xml:space="preserve">
<path fill="#FEFEFE" opacity="1.000000" stroke="none" 
	d="
M0.999996,826.000000 
	C1.000000,589.312439 1.000000,352.624878 1.425523,115.682472 
	C42.608727,115.427628 83.366409,115.427628 124.429680,115.427628 
	C124.429680,108.566765 124.452652,102.266449 124.425827,95.966354 
	C124.291039,64.310867 124.143227,32.655445 124.000000,1.000000 
	C286.354218,1.000000 448.708466,1.000000 611.530090,1.426142 
	C612.280823,3.828442 612.524353,5.811264 612.853516,7.779768 
	C621.629089,60.266846 648.872620,98.736542 698.766907,119.364998 
	C739.486755,136.200363 779.668945,133.819138 818.938538,114.039413 
	C846.389404,100.212669 865.396606,78.141525 879.025330,51.277836 
	C886.968811,35.620350 891.925964,18.854689 892.000000,1.000000 
	C901.649902,1.000000 911.299866,1.000000 921.000000,1.000000 
	C921.000000,75.354218 921.000000,149.708450 920.709900,224.239960 
	C919.909668,225.033783 919.298157,225.591873 918.903992,226.275253 
	C895.566162,266.735138 872.247925,307.206238 848.923828,347.673981 
	C843.252563,357.513550 837.567932,367.345337 831.512329,377.833984 
	C834.127014,377.833984 835.892761,377.830963 837.658508,377.834442 
	C865.439026,377.889130 893.219482,377.944672 921.000000,378.000000 
	C921.000000,385.687592 921.000000,393.375153 920.532227,401.499023 
	C911.952454,401.935333 903.840515,401.935333 895.606689,401.935333 
	C895.606689,414.846710 895.606689,427.185028 895.606689,440.000000 
	C904.372925,440.000000 912.686462,440.000000 921.000000,440.000000 
	C921.000000,451.020905 921.000000,462.041779 920.532715,473.490723 
	C914.596313,473.945404 909.127136,473.960022 903.658142,474.002319 
	C898.678833,474.040833 894.735168,476.853973 894.516846,481.783905 
	C894.094299,491.325928 894.393433,500.899872 894.393433,511.000000 
	C903.544067,511.000000 912.272034,511.000000 921.000000,511.000000 
	C921.000000,522.687561 921.000000,534.375122 920.575195,546.315857 
	C911.548645,546.569031 902.947021,546.569031 893.929626,546.569031 
	C893.929626,558.202576 893.929626,569.454102 893.929626,580.645142 
	C870.459473,580.645142 847.412292,580.645142 823.962280,580.645142 
	C823.962280,544.882507 823.962280,509.473358 823.962280,473.670715 
	C779.315735,473.670715 735.074768,473.670715 690.493408,473.670715 
	C690.493408,471.476349 690.489197,469.666168 690.494080,467.855988 
	C690.602051,427.357880 690.722534,386.859772 690.796326,346.361603 
	C690.801758,343.372772 690.452942,340.384277 690.301880,337.393982 
	C689.983765,331.096191 686.576904,326.978394 681.210449,324.078308 
	C673.597412,319.964142 665.995911,315.821442 658.497864,311.502808 
	C596.912476,276.031708 535.332642,240.550934 473.815491,204.961655 
	C467.837921,201.503479 462.626190,201.513580 456.573425,205.035721 
	C419.465271,226.629105 382.207794,247.965881 344.991394,269.373077 
	C343.798401,270.059296 342.511841,270.582916 341.168335,271.230835 
	C341.168335,231.260712 341.168335,191.852509 341.168335,152.083176 
	C418.258545,152.083176 495.013702,152.083176 571.866333,152.083176 
	C571.866333,109.837936 571.866333,67.957153 571.866333,26.103348 
	C481.974548,26.103348 392.384613,26.103348 302.715637,26.103348 
	C302.715637,38.794777 302.715637,51.213711 302.715637,64.046249 
	C379.839386,64.046249 456.753937,64.046249 533.643372,64.046249 
	C533.643372,81.004395 533.643372,97.545143 533.643372,114.344299 
	C456.338562,114.344299 379.390167,114.344299 301.999908,114.344299 
	C301.999908,116.225220 302.000977,117.847832 301.999756,119.470451 
	C301.983704,140.969604 301.971924,162.468750 301.949921,183.967896 
	C301.916016,217.133240 301.812317,250.298721 301.886047,283.463806 
	C301.902252,290.762085 299.557617,295.952057 292.768188,299.703979 
	C276.752197,308.554657 261.122711,318.102448 245.249619,327.216217 
	C242.510681,328.788849 241.392807,330.434235 241.409378,333.768646 
	C241.571899,366.433197 241.507126,399.098938 241.506958,431.764313 
	C241.506958,433.498016 241.506943,435.231720 241.506943,436.973541 
	C207.633820,436.973541 174.525986,436.973541 140.888168,436.973541 
	C140.888168,431.738739 140.888168,426.683502 140.888168,421.748718 
	C128.241745,421.748718 116.127182,421.748718 103.817879,421.748718 
	C103.817879,440.036743 103.817879,458.080109 103.817879,476.575836 
	C149.714935,476.575836 195.300293,476.575836 240.871948,476.575836 
	C240.871948,499.936981 240.871948,522.843384 240.871948,546.103027 
	C218.969727,546.103027 197.360474,546.103027 175.758286,546.103027 
	C175.758286,558.867371 175.758286,571.274231 175.758286,584.339417 
	C190.650269,584.339417 205.292618,584.307068 219.934753,584.349365 
	C232.416534,584.385376 243.795258,587.708252 254.194733,594.914062 
	C262.529358,600.689331 271.252197,605.949768 280.062958,610.983215 
	C300.438263,622.623169 320.876984,634.160156 341.482727,645.385071 
	C350.948029,650.541321 355.305237,657.585815 355.155182,668.671387 
	C354.663483,704.996277 354.872284,741.330627 354.812378,777.661377 
	C354.809479,779.423035 354.812012,781.184692 354.812012,783.283630 
	C397.211090,783.283630 438.977325,783.283630 480.953644,783.283630 
	C480.953644,800.210693 480.953644,816.790588 480.953644,833.864929 
	C463.014038,833.864929 445.279816,833.864929 427.382568,833.864929 
	C427.382568,846.626709 427.382568,858.893555 427.382568,871.113770 
	C458.154633,871.113770 488.708618,871.113770 519.139648,871.113770 
	C519.139648,828.847290 519.139648,786.963318 519.139648,744.752441 
	C477.348236,744.752441 435.912018,744.752441 394.238953,744.752441 
	C394.238953,722.042358 394.238953,699.661377 394.238953,676.804749 
	C396.112396,677.787598 397.717377,678.554688 399.250580,679.445374 
	C416.943909,689.723083 434.815308,699.712646 452.234467,710.436462 
	C461.371399,716.061462 469.115753,716.178650 478.572662,710.568848 
	C513.914490,689.604065 549.691589,669.372986 585.310059,648.874939 
	C586.687805,648.082092 588.114197,647.374023 590.202820,646.261658 
	C590.202820,681.893555 590.202820,716.772034 590.202820,752.142395 
	C631.739868,752.142395 672.794678,752.142395 713.753967,752.142395 
	C713.753967,785.905334 713.753967,819.171082 713.753967,852.991455 
	C672.476440,852.991455 631.441406,852.991455 590.513794,852.991455 
	C590.513794,896.273865 590.513794,938.999084 590.513794,981.612549 
	C620.478943,981.612549 650.096497,981.612549 679.928833,981.612549 
	C679.928833,968.995117 679.928833,956.598877 679.928833,943.685791 
	C662.804260,943.685791 645.911377,943.685791 629.059448,943.685791 
	C629.059448,925.899170 629.059448,908.630676 629.059448,890.890686 
	C670.184082,890.890686 711.084534,890.890686 751.844360,890.890686 
	C751.844360,831.498352 751.844360,772.580200 751.844360,713.291626 
	C710.592834,713.291626 669.664062,713.291626 628.494019,713.291626 
	C628.494019,684.108215 628.439392,655.295959 628.642883,626.485474 
	C628.653870,624.920044 630.491272,622.802368 632.037659,621.900208 
	C647.696106,612.765320 663.300110,603.510132 679.284241,594.971558 
	C687.527405,590.568176 690.847656,584.692932 690.601624,575.389771 
	C690.099487,556.404419 690.431885,537.396973 690.420837,518.398621 
	C690.419800,516.628723 690.420715,514.858887 690.420715,513.064575 
	C722.855713,513.064575 754.626892,513.064575 787.007568,513.064575 
	C787.007568,548.649292 787.007568,584.006836 787.007568,619.486755 
	C831.446899,619.486755 875.275818,619.488770 919.104675,619.466492 
	C919.736511,619.466187 920.368225,619.162292 921.000000,619.000000 
	C921.000000,705.354248 921.000000,791.708435 920.636475,878.551147 
	C916.464966,881.045166 912.500366,882.803101 908.874146,885.096130 
	C883.391846,901.209717 865.765137,923.038391 861.998474,953.702637 
	C860.408447,966.647339 861.258911,979.891785 861.000000,993.000000 
	C685.312439,993.000000 509.624878,993.000000 333.642303,992.661011 
	C310.376648,952.188049 287.579590,911.953491 264.398987,871.941101 
	C216.952377,790.042786 169.300919,708.263184 121.723427,626.440674 
	C120.835342,624.913330 119.818405,623.460999 118.742706,621.788879 
	C116.730804,625.856262 115.156136,629.537292 113.170105,632.981140 
	C76.771263,696.098572 40.326603,759.189514 3.862378,822.269165 
	C3.084599,823.614685 1.961818,824.760864 0.999996,826.000000 
M58.272110,276.172455 
	C64.205132,286.345398 71.670570,295.235535 81.674423,301.511566 
	C107.312080,317.595612 133.853043,319.616730 160.076813,303.639160 
	C189.923874,285.453979 203.142197,245.574722 189.310638,214.410934 
	C172.821808,177.260086 144.810135,165.737930 110.179916,169.901871 
	C84.147705,173.031967 65.937431,188.760681 55.654465,212.577057 
	C46.577660,233.599899 46.966969,254.899628 58.272110,276.172455 
M772.003052,373.500000 
	C772.002991,354.692627 772.002930,335.885254 772.002869,317.077881 
	C772.002808,311.258545 772.012817,305.439148 771.998596,299.619843 
	C771.990417,296.275482 770.191467,293.990814 766.997070,293.929321 
	C755.749878,293.712921 744.495911,293.845245 732.891907,293.845245 
	C732.891907,318.439880 732.891907,342.345856 732.891907,366.705292 
	C726.796631,366.705292 721.056702,366.705292 715.401733,366.705292 
	C715.401733,379.093658 715.401733,391.022522 715.401733,403.224670 
	C734.353821,403.224670 753.066284,403.224670 772.003052,403.224670 
	C772.003052,393.457977 772.003052,383.978973 772.003052,373.500000 
M355.287170,848.507507 
	C355.287170,855.928528 355.287170,863.349548 355.287170,870.704041 
	C368.308868,870.704041 380.514038,870.704041 393.002777,870.704041 
	C393.002777,861.978027 393.003143,853.671326 393.002258,845.364563 
	C393.002136,844.365906 393.071167,843.360107 392.979034,842.369690 
	C392.434875,836.520630 389.639191,834.002258 383.788910,833.858582 
	C380.307465,833.773193 376.831940,833.404480 373.350922,833.353088 
	C367.456299,833.265991 361.559387,833.329224 355.287842,833.329224 
	C355.287842,838.900085 355.287842,843.206360 355.287170,848.507507 
M158.967422,46.498436 
	C158.967422,51.909653 158.967422,57.320866 158.967422,62.627899 
	C171.641190,62.627899 183.514130,62.627899 195.497650,62.627899 
	C195.497650,50.034431 195.497650,37.820847 195.497650,25.419209 
	C183.305130,25.419209 171.424850,25.419209 158.967560,25.419209 
	C158.967560,32.296120 158.967560,38.897526 158.967422,46.498436 
M229.995590,30.689293 
	C229.996490,39.331783 229.775635,47.983997 230.153702,56.609959 
	C230.248627,58.776031 232.189743,62.647861 233.410477,62.699352 
	C244.640244,63.173016 255.898178,62.978436 267.399963,62.978436 
	C267.399963,50.488811 267.399963,38.481693 267.399963,26.108772 
	C255.579391,26.108772 244.131989,26.025373 232.691422,26.265989 
	C231.769165,26.285387 230.893753,28.531153 229.995590,30.689293 
M733.996216,253.379852 
	C733.996216,255.322723 733.996216,257.265594 733.996216,259.367371 
	C746.635010,259.367371 758.674866,259.367371 770.761292,259.367371 
	C770.761292,246.892929 770.761292,234.805099 770.761292,222.872070 
	C758.754883,222.872070 747.045715,222.872070 733.996521,222.872070 
	C733.996521,233.194611 733.996521,242.800461 733.996216,253.379852 
M104.949959,386.549103 
	C117.188652,386.549103 129.427353,386.549103 142.400070,386.549103 
	C141.019058,374.603210 139.770264,363.249695 138.289673,351.926453 
	C138.155457,350.900024 136.544159,349.284454 135.594406,349.266968 
	C125.171371,349.075195 114.743507,349.146667 104.211502,349.146667 
	C104.211502,361.819092 104.211502,373.908966 104.949959,386.549103 
M294.520477,834.099976 
	C290.764771,834.099976 287.009064,834.099976 282.956512,834.099976 
	C282.956512,843.859070 282.475830,852.864136 283.209137,861.769104 
	C283.477081,865.023071 286.400635,870.548584 288.503357,870.739624 
	C298.809753,871.676270 309.247772,871.164429 319.733826,871.164429 
	C319.733826,858.978088 319.733826,846.775879 319.733826,834.100281 
	C311.417236,834.100281 303.465179,834.100281 294.520477,834.099976 
M802.503418,944.948547 
	C797.423584,944.948547 792.343689,944.948547 787.485352,944.948547 
	C787.485352,957.537048 787.485352,969.251709 787.485352,980.982605 
	C800.043152,980.982605 812.145935,980.982605 824.566528,980.982605 
	C824.566528,968.985291 824.566528,957.262207 824.566528,944.948425 
	C817.391479,944.948425 810.446655,944.948425 802.503418,944.948547 
M63.033978,546.003723 
	C52.771984,546.003723 42.509991,546.003723 32.313416,546.003723 
	C32.313416,558.756897 32.313416,570.798645 32.313416,582.835266 
	C44.677998,582.835266 56.606464,582.835266 69.024574,582.835266 
	C69.024574,572.117920 69.266228,561.666443 68.795532,551.247192 
	C68.713531,549.431824 65.628418,547.752197 63.033978,546.003723 
M117.589722,545.883728 
	C115.590744,545.887939 113.514008,545.544678 111.609428,545.970825 
	C107.941086,546.791626 103.415115,547.429810 103.249023,552.284119 
	C102.903679,562.377625 103.144669,572.491150 103.144669,582.770386 
	C115.648857,582.770386 127.699684,582.770386 139.868469,582.770386 
	C139.868469,570.386230 139.868469,558.353333 139.868469,545.883362 
	C132.501053,545.883362 125.533539,545.883362 117.589722,545.883728 
M771.106934,164.508209 
	C771.106934,160.104263 771.106934,155.700317 771.106934,151.426361 
	C757.892395,151.426361 745.532532,151.426361 732.569763,151.426361 
	C733.881714,162.933746 735.075562,173.962967 736.490112,184.963791 
	C736.634521,186.086212 738.086914,187.918228 738.961365,187.935333 
	C749.531067,188.142120 760.106262,188.069336 771.107056,188.069336 
	C771.107056,180.079117 771.107056,172.791962 771.106934,164.508209 
M741.481445,981.199524 
	C745.097046,981.199524 748.712585,981.199524 752.616089,981.199524 
	C752.616089,968.876587 752.616089,957.153137 752.616089,945.218262 
	C740.294800,945.218262 728.268494,945.218262 716.186218,945.218262 
	C716.186218,957.328491 716.186218,969.037659 716.186218,981.199951 
	C724.558350,981.199951 732.523254,981.199951 741.481445,981.199524 
z"/>
<path fill="#010101" opacity="1.000000" stroke="none" 
	d="
M921.000000,618.531372 
	C920.368225,619.162292 919.736511,619.466187 919.104675,619.466492 
	C875.275818,619.488770 831.446899,619.486755 787.007568,619.486755 
	C787.007568,584.006836 787.007568,548.649292 787.007568,513.064575 
	C754.626892,513.064575 722.855713,513.064575 690.420715,513.064575 
	C690.420715,514.858887 690.419800,516.628723 690.420837,518.398621 
	C690.431885,537.396973 690.099487,556.404419 690.601624,575.389771 
	C690.847656,584.692932 687.527405,590.568176 679.284241,594.971558 
	C663.300110,603.510132 647.696106,612.765320 632.037659,621.900208 
	C630.491272,622.802368 628.653870,624.920044 628.642883,626.485474 
	C628.439392,655.295959 628.494019,684.108215 628.494019,713.291626 
	C669.664062,713.291626 710.592834,713.291626 751.844360,713.291626 
	C751.844360,772.580200 751.844360,831.498352 751.844360,890.890686 
	C711.084534,890.890686 670.184082,890.890686 629.059448,890.890686 
	C629.059448,908.630676 629.059448,925.899170 629.059448,943.685791 
	C645.911377,943.685791 662.804260,943.685791 679.928833,943.685791 
	C679.928833,956.598877 679.928833,968.995117 679.928833,981.612549 
	C650.096497,981.612549 620.478943,981.612549 590.513794,981.612549 
	C590.513794,938.999084 590.513794,896.273865 590.513794,852.991455 
	C631.441406,852.991455 672.476440,852.991455 713.753967,852.991455 
	C713.753967,819.171082 713.753967,785.905334 713.753967,752.142395 
	C672.794678,752.142395 631.739868,752.142395 590.202820,752.142395 
	C590.202820,716.772034 590.202820,681.893555 590.202820,646.261658 
	C588.114197,647.374023 586.687805,648.082092 585.310059,648.874939 
	C549.691589,669.372986 513.914490,689.604065 478.572662,710.568848 
	C469.115753,716.178650 461.371399,716.061462 452.234467,710.436462 
	C434.815308,699.712646 416.943909,689.723083 399.250580,679.445374 
	C397.717377,678.554688 396.112396,677.787598 394.238953,676.804749 
	C394.238953,699.661377 394.238953,722.042358 394.238953,744.752441 
	C435.912018,744.752441 477.348236,744.752441 519.139648,744.752441 
	C519.139648,786.963318 519.139648,828.847290 519.139648,871.113770 
	C488.708618,871.113770 458.154633,871.113770 427.382568,871.113770 
	C427.382568,858.893555 427.382568,846.626709 427.382568,833.864929 
	C445.279816,833.864929 463.014038,833.864929 480.953644,833.864929 
	C480.953644,816.790588 480.953644,800.210693 480.953644,783.283630 
	C438.977325,783.283630 397.211090,783.283630 354.812012,783.283630 
	C354.812012,781.184692 354.809479,779.423035 354.812378,777.661377 
	C354.872284,741.330627 354.663483,704.996277 355.155182,668.671387 
	C355.305237,657.585815 350.948029,650.541321 341.482727,645.385071 
	C320.876984,634.160156 300.438263,622.623169 280.062958,610.983215 
	C271.252197,605.949768 262.529358,600.689331 254.194733,594.914062 
	C243.795258,587.708252 232.416534,584.385376 219.934753,584.349365 
	C205.292618,584.307068 190.650269,584.339417 175.758286,584.339417 
	C175.758286,571.274231 175.758286,558.867371 175.758286,546.103027 
	C197.360474,546.103027 218.969727,546.103027 240.871948,546.103027 
	C240.871948,522.843384 240.871948,499.936981 240.871948,476.575836 
	C195.300293,476.575836 149.714935,476.575836 103.817879,476.575836 
	C103.817879,458.080109 103.817879,440.036743 103.817879,421.748718 
	C116.127182,421.748718 128.241745,421.748718 140.888168,421.748718 
	C140.888168,426.683502 140.888168,431.738739 140.888168,436.973541 
	C174.525986,436.973541 207.633820,436.973541 241.506943,436.973541 
	C241.506943,435.231720 241.506958,433.498016 241.506958,431.764313 
	C241.507126,399.098938 241.571899,366.433197 241.409378,333.768646 
	C241.392807,330.434235 242.510681,328.788849 245.249619,327.216217 
	C261.122711,318.102448 276.752197,308.554657 292.768188,299.703979 
	C299.557617,295.952057 301.902252,290.762085 301.886047,283.463806 
	C301.812317,250.298721 301.916016,217.133240 301.949921,183.967896 
	C301.971924,162.468750 301.983704,140.969604 301.999756,119.470451 
	C302.000977,117.847832 301.999908,116.225220 301.999908,114.344299 
	C379.390167,114.344299 456.338562,114.344299 533.643372,114.344299 
	C533.643372,97.545143 533.643372,81.004395 533.643372,64.046249 
	C456.753937,64.046249 379.839386,64.046249 302.715637,64.046249 
	C302.715637,51.213711 302.715637,38.794777 302.715637,26.103348 
	C392.384613,26.103348 481.974548,26.103348 571.866333,26.103348 
	C571.866333,67.957153 571.866333,109.837936 571.866333,152.083176 
	C495.013702,152.083176 418.258545,152.083176 341.168335,152.083176 
	C341.168335,191.852509 341.168335,231.260712 341.168335,271.230835 
	C342.511841,270.582916 343.798401,270.059296 344.991394,269.373077 
	C382.207794,247.965881 419.465271,226.629105 456.573425,205.035721 
	C462.626190,201.513580 467.837921,201.503479 473.815491,204.961655 
	C535.332642,240.550934 596.912476,276.031708 658.497864,311.502808 
	C665.995911,315.821442 673.597412,319.964142 681.210449,324.078308 
	C686.576904,326.978394 689.983765,331.096191 690.301880,337.393982 
	C690.452942,340.384277 690.801758,343.372772 690.796326,346.361603 
	C690.722534,386.859772 690.602051,427.357880 690.494080,467.855988 
	C690.489197,469.666168 690.493408,471.476349 690.493408,473.670715 
	C735.074768,473.670715 779.315735,473.670715 823.962280,473.670715 
	C823.962280,509.473358 823.962280,544.882507 823.962280,580.645142 
	C847.412292,580.645142 870.459473,580.645142 893.929626,580.645142 
	C893.929626,569.454102 893.929626,558.202576 893.929626,546.569031 
	C902.947021,546.569031 911.548645,546.569031 920.575195,546.784546 
	C921.000000,570.687561 921.000000,594.375122 921.000000,618.531372 
M279.022278,396.962189 
	C278.967529,407.857758 278.873840,418.753418 278.903473,429.648773 
	C278.907532,431.141235 279.525482,432.632080 279.676727,434.932739 
	C279.357178,437.026031 278.757538,439.119568 278.759552,441.212555 
	C278.796631,479.702423 278.983307,518.192383 278.928436,556.681946 
	C278.918518,563.644104 281.887390,568.385864 287.646149,571.713806 
	C343.425598,603.948303 399.250153,636.104980 454.954956,668.467834 
	C462.412659,672.800537 469.085419,672.704529 476.433044,668.424683 
	C514.590820,646.198547 552.866577,624.175049 591.070068,602.027283 
	C608.100342,592.154297 625.057434,582.155029 642.734741,572.021851 
	C647.571716,569.653442 651.637390,566.030457 651.837646,560.638916 
	C652.292969,548.385681 651.875854,536.099976 651.893677,522.919983 
	C651.859192,506.324982 651.824707,489.730011 652.001221,472.194824 
	C651.933594,461.854370 651.865967,451.513885 651.995911,440.232391 
	C652.069275,423.913300 652.130859,407.594177 652.220459,391.275177 
	C652.272583,381.783386 652.073120,372.277435 652.535034,362.804565 
	C652.949097,354.314392 649.593994,348.656769 642.120178,344.725983 
	C634.050964,340.481964 626.295105,335.642883 618.395447,331.075562 
	C570.843018,303.582214 523.265442,276.131989 475.762054,248.554153 
	C469.366669,244.841339 463.594513,243.897522 456.724060,247.908646 
	C400.977814,280.454437 345.065033,312.714966 289.315857,345.255768 
	C285.763763,347.329163 283.153198,351.015594 279.880768,354.369171 
	C279.880768,354.369171 279.783844,354.831421 279.241516,355.153320 
	C279.168457,355.754333 279.095398,356.355316 278.831482,357.887695 
	C278.936249,370.604034 279.041046,383.320404 279.022278,396.962189 
z"/>
<path fill="#020201" opacity="1.000000" stroke="none" 
	d="
M0.999996,826.468628 
	C1.961818,824.760864 3.084599,823.614685 3.862378,822.269165 
	C40.326603,759.189514 76.771263,696.098572 113.170105,632.981140 
	C115.156136,629.537292 116.730804,625.856262 118.742706,621.788879 
	C119.818405,623.460999 120.835342,624.913330 121.723427,626.440674 
	C169.300919,708.263184 216.952377,790.042786 264.398987,871.941101 
	C287.579590,911.953491 310.376648,952.188049 333.173645,992.661011 
	C318.979095,993.000000 304.958221,993.000000 290.554749,992.640625 
	C289.962311,991.830811 289.785553,991.361084 289.537750,990.932495 
	C247.023544,917.391602 204.528534,843.839661 161.958755,770.330994 
	C155.618622,759.382874 148.925858,748.639038 142.387161,737.623779 
	C142.419754,737.152039 142.293716,736.979248 142.003235,736.969238 
	C142.006439,737.010071 142.088211,737.004822 142.155945,736.665649 
	C141.491653,735.199219 140.759644,734.071838 140.015686,732.972290 
	C140.003708,733.000122 140.062897,732.987488 140.048035,732.677734 
	C139.716415,732.203735 139.399628,732.039612 139.061432,731.912231 
	C139.040024,731.948975 139.125076,731.950684 139.204178,731.611877 
	C138.539597,730.161377 137.795929,729.049744 137.032227,727.970581 
	C137.012207,728.002991 137.078537,727.965332 137.096222,727.642883 
	C136.788193,727.155640 136.462494,726.990845 136.105530,726.857910 
	C136.074280,726.889771 136.154434,726.929016 136.267090,726.580261 
	C135.270187,724.468933 134.160645,722.706299 133.033997,720.976318 
	C133.016891,721.008972 133.069260,720.955872 133.063263,720.596313 
	C129.202881,713.553589 125.348518,706.870483 121.353195,699.942993 
	C119.747688,701.150757 118.480400,702.104065 116.867691,703.117188 
	C114.879227,705.241455 112.958786,707.143494 111.637978,709.397034 
	C102.834312,724.417725 94.155518,739.511719 85.442093,754.585327 
	C58.389381,801.384705 31.348101,848.190735 4.239657,894.957764 
	C3.528079,896.185364 2.096050,896.995300 0.999998,898.000000 
	C1.000000,874.312439 1.000000,850.624878 0.999996,826.468628 
z"/>
<path fill="#F2BF4D" opacity="1.000000" stroke="none" 
	d="
M142.396210,737.800720 
	C148.925858,748.639038 155.618622,759.382874 161.958755,770.330994 
	C204.528534,843.839661 247.023544,917.391602 289.537750,990.932495 
	C289.785553,991.361084 289.962311,991.830811 290.086121,992.640625 
	C234.645767,993.000000 179.291550,993.000000 123.468529,992.544434 
	C122.983528,989.342041 122.967323,986.595215 122.957375,983.451782 
	C123.915451,982.016479 124.693123,980.406616 125.853699,980.052734 
	C128.641281,979.202820 131.608582,978.942261 134.586563,978.429504 
	C134.586563,966.593811 134.586563,954.931946 134.586563,943.263977 
	C130.282333,942.708679 126.362419,942.203003 122.163116,941.661316 
	C122.082809,940.132935 122.006554,938.681519 121.947617,936.776062 
	C121.950500,933.238464 121.919647,930.154846 121.925087,927.071289 
	C121.936218,920.763672 121.966843,914.456116 122.405373,908.070557 
	C126.811501,907.295410 130.801697,906.598206 134.896759,905.882690 
	C134.896759,894.432800 134.896759,883.209656 134.896759,871.627136 
	C129.846405,871.060120 124.979744,870.513733 120.075226,869.502441 
	C120.007812,845.703735 119.978256,822.369934 119.972015,798.564575 
	C119.992325,771.983948 120.005516,745.874878 119.946030,719.766052 
	C119.942467,718.200439 119.358093,716.636108 119.030411,714.650635 
	C119.395645,712.031372 119.774445,709.832825 120.371910,707.453308 
	C120.836685,706.363037 121.082802,705.453613 121.470413,704.021423 
	C122.898178,706.402588 123.956169,708.427246 125.257156,710.281372 
	C127.789223,713.890015 130.457428,717.403198 133.069260,720.955872 
	C133.069260,720.955872 133.016891,721.008972 132.941071,721.339722 
	C133.961639,723.423340 135.058029,725.176208 136.154434,726.929016 
	C136.154434,726.929016 136.074280,726.889771 136.084961,727.166870 
	C136.423264,727.617798 136.750900,727.791565 137.078537,727.965332 
	C137.078537,727.965332 137.012207,728.002991 136.967468,728.326660 
	C137.656860,729.750427 138.390976,730.850525 139.125092,731.950684 
	C139.125076,731.950684 139.040024,731.948975 139.067200,732.212036 
	C139.417206,732.645813 139.740051,732.816650 140.062897,732.987488 
	C140.062897,732.987488 140.003708,733.000122 139.963913,733.329407 
	C140.645477,734.774048 141.366837,735.889465 142.088211,737.004822 
	C142.088211,737.004822 142.006439,737.010071 142.070480,737.115112 
	C142.243652,737.403748 142.330872,737.597290 142.396210,737.800720 
M207.117783,955.508179 
	C207.117783,951.402771 207.117783,947.297363 207.117783,943.195801 
	C195.098038,943.195801 183.701843,943.195801 172.384979,943.195801 
	C172.384979,955.062988 172.384979,966.612061 172.384979,978.106812 
	C184.049637,978.106812 195.328842,978.106812 207.117783,978.106812 
	C207.117783,970.751465 207.117783,963.628967 207.117783,955.508179 
z"/>
<path fill="#EBAE40" opacity="1.000000" stroke="none" 
	d="
M120.153244,707.634216 
	C119.774445,709.832825 119.395645,712.031372 119.024185,715.110901 
	C119.051132,743.673767 119.070732,771.355652 119.079605,799.503662 
	C118.689392,823.296387 118.309929,846.622925 117.509247,870.056030 
	C111.560188,870.441528 106.032333,870.720520 100.395027,871.005005 
	C100.395027,882.966431 100.395027,894.348938 100.395027,906.334106 
	C107.674469,906.945740 114.831963,907.547119 121.989449,908.148499 
	C121.966843,914.456116 121.936218,920.763672 121.925087,927.071289 
	C121.919647,930.154846 121.950500,933.238464 121.650238,937.010010 
	C121.100212,939.090576 120.864876,940.483093 120.567696,942.241516 
	C113.657509,942.241516 107.081688,942.241516 100.391846,942.241516 
	C100.391846,954.655579 100.391846,966.624573 100.391846,978.528870 
	C106.207947,979.061523 111.621468,979.626892 117.047256,980.025085 
	C119.793236,980.226624 122.101036,980.842529 122.951111,983.848389 
	C122.967323,986.595215 122.983528,989.342041 122.999870,992.544434 
	C82.415474,993.000000 41.830952,993.000000 1.000000,993.000000 
	C1.000000,961.646179 1.000000,930.291748 0.999998,898.468628 
	C2.096050,896.995300 3.528079,896.185364 4.239657,894.957764 
	C31.348101,848.190735 58.389381,801.384705 85.442093,754.585327 
	C94.155518,739.511719 102.834312,724.417725 111.637978,709.397034 
	C112.958786,707.143494 114.879227,705.241455 117.245056,703.010559 
	C118.696304,704.440918 119.424774,706.037537 120.153244,707.634216 
M55.432854,978.003357 
	C57.859428,978.003357 60.286003,978.003357 62.720154,978.003357 
	C62.720154,966.007446 62.720154,954.628235 62.720154,943.121948 
	C51.212486,943.121948 39.989662,943.121948 28.491737,943.121948 
	C28.491737,954.726013 28.491737,966.096558 28.491737,978.003418 
	C37.273262,978.003418 45.862286,978.003418 55.432854,978.003357 
z"/>
<path fill="#020202" opacity="1.000000" stroke="none" 
	d="
M891.531372,1.000000 
	C891.925964,18.854689 886.968811,35.620350 879.025330,51.277836 
	C865.396606,78.141525 846.389404,100.212669 818.938538,114.039413 
	C779.668945,133.819138 739.486755,136.200363 698.766907,119.364998 
	C648.872620,98.736542 621.629089,60.266846 612.853516,7.779768 
	C612.524353,5.811264 612.280823,3.828442 611.998779,1.426142 
	C624.354248,1.000000 636.708435,1.000000 649.544434,1.413760 
	C651.030090,7.013031 651.628113,12.317419 653.106445,17.363939 
	C660.376526,42.182251 673.925842,62.334904 697.053162,75.544067 
	C697.380493,76.270691 697.574097,76.802269 697.949768,77.020432 
	C721.761841,90.850792 747.086731,96.535118 774.353333,90.584221 
	C800.065735,84.972488 820.431519,70.839485 836.233826,50.104073 
	C847.250549,35.648098 854.224670,19.461451 855.000000,1.000000 
	C867.020874,1.000000 879.041809,1.000000 891.531372,1.000000 
z"/>
<path fill="#DC7185" opacity="1.000000" stroke="none" 
	d="
M854.531372,1.000000 
	C854.224670,19.461451 847.250549,35.648098 836.233826,50.104073 
	C820.431519,70.839485 800.065735,84.972488 774.353333,90.584221 
	C747.086731,96.535118 721.761841,90.850792 697.949768,77.020432 
	C697.574097,76.802269 697.380493,76.270691 697.359497,75.245712 
	C697.225769,68.713272 697.122864,62.784092 696.384644,56.935104 
	C694.719299,43.740837 694.263367,30.591358 696.711487,17.455482 
	C697.736206,11.957011 698.899658,6.484381 700.000000,1.000000 
	C751.354248,1.000000 802.708435,1.000000 854.531372,1.000000 
M752.503418,20.967421 
	C748.176025,20.981113 743.835083,20.809914 739.529968,21.126286 
	C738.310791,21.215879 736.276184,22.633022 736.174866,23.604034 
	C735.064331,34.247028 734.262817,44.922272 733.368103,55.700497 
	C745.434753,55.700497 757.001831,55.700497 768.701904,55.700497 
	C768.701904,44.017231 768.701904,32.636665 768.701904,20.962677 
	C763.413879,20.962677 758.456970,20.962677 752.503418,20.967421 
z"/>
<path fill="#000000" opacity="1.000000" stroke="none" 
	d="
M123.531342,1.000000 
	C124.143227,32.655445 124.291039,64.310867 124.425827,95.966354 
	C124.452652,102.266449 124.429680,108.566765 124.429680,115.427628 
	C83.366409,115.427628 42.608727,115.427628 1.425523,115.213814 
	C1.000000,103.645775 1.000000,92.291542 1.468398,80.451691 
	C29.844524,79.966057 57.752251,79.966057 86.000000,79.966057 
	C86.000000,53.219749 86.000000,27.109875 86.000000,1.000000 
	C98.354225,1.000000 110.708458,1.000000 123.531342,1.000000 
z"/>
<path fill="#030303" opacity="1.000000" stroke="none" 
	d="
M921.000000,377.531342 
	C893.219482,377.944672 865.439026,377.889130 837.658508,377.834442 
	C835.892761,377.830963 834.127014,377.833984 831.512329,377.833984 
	C837.567932,367.345337 843.252563,357.513550 848.923828,347.673981 
	C872.247925,307.206238 895.566162,266.735138 918.903992,226.275253 
	C919.298157,225.591873 919.909668,225.033783 920.709900,224.708618 
	C921.000000,249.020889 921.000000,273.041779 920.681458,297.667297 
	C912.587891,311.860046 904.812866,325.448120 896.486389,340.000000 
	C905.467651,340.000000 913.233826,340.000000 921.000000,340.000000 
	C921.000000,352.354218 921.000000,364.708466 921.000000,377.531342 
z"/>
<path fill="#5EC5B4" opacity="1.000000" stroke="none" 
	d="
M1.000000,79.000000 
	C1.000000,53.070404 1.000000,27.140808 1.000000,1.000000 
	C28.687202,1.000000 56.374943,1.000000 84.535538,1.468643 
	C85.009293,25.877930 84.917305,49.819283 85.099831,73.758537 
	C85.131340,77.889656 83.970528,79.108925 79.803986,79.081184 
	C53.536976,78.906281 27.268196,78.997017 1.000000,79.000000 
M49.263733,31.486311 
	C49.263733,23.409645 49.263733,15.332977 49.263733,6.853341 
	C37.332615,7.833437 26.158194,8.751373 14.612146,9.699838 
	C14.612146,21.156481 14.612146,31.881886 14.612146,42.701122 
	C26.161858,42.701122 37.553036,42.701122 49.263847,42.701122 
	C49.263847,39.092239 49.263847,35.787048 49.263733,31.486311 
z"/>
<path fill="#010202" opacity="1.000000" stroke="none" 
	d="
M861.468628,993.000000 
	C861.258911,979.891785 860.408447,966.647339 861.998474,953.702637 
	C865.765137,923.038391 883.391846,901.209717 908.874146,885.096130 
	C912.500366,882.803101 916.464966,881.045166 920.636475,879.019775 
	C921.000000,893.020874 921.000000,907.041809 920.662842,921.586670 
	C912.171936,928.321289 906.295166,936.174194 902.970154,946.302368 
	C901.091492,952.167542 897.360352,957.251038 898.624512,963.598145 
	C895.612305,970.816895 897.065491,977.899963 898.859558,985.328979 
	C899.345825,988.119202 899.672913,990.559631 900.000000,993.000000 
	C887.312439,993.000000 874.624878,993.000000 861.468628,993.000000 
z"/>
<path fill="#EBADB5" opacity="1.000000" stroke="none" 
	d="
M699.531372,1.000000 
	C698.899658,6.484381 697.736206,11.957011 696.711487,17.455482 
	C694.263367,30.591358 694.719299,43.740837 696.384644,56.935104 
	C697.122864,62.784092 697.225769,68.713272 697.310730,74.904396 
	C673.925842,62.334904 660.376526,42.182251 653.106445,17.363939 
	C651.628113,12.317419 651.030090,7.013031 650.013062,1.413760 
	C666.354248,1.000000 682.708435,1.000000 699.531372,1.000000 
z"/>
<path fill="#6EA7E3" opacity="1.000000" stroke="none" 
	d="
M921.000000,439.531342 
	C912.686462,440.000000 904.372925,440.000000 895.606689,440.000000 
	C895.606689,427.185028 895.606689,414.846710 895.606689,401.935333 
	C903.840515,401.935333 911.952454,401.935333 920.532227,401.967651 
	C921.000000,414.354218 921.000000,426.708466 921.000000,439.531342 
z"/>
<path fill="#EF8B9A" opacity="1.000000" stroke="none" 
	d="
M921.000000,510.531342 
	C912.272034,511.000000 903.544067,511.000000 894.393433,511.000000 
	C894.393433,500.899872 894.094299,491.325928 894.516846,481.783905 
	C894.735168,476.853973 898.678833,474.040833 903.658142,474.002319 
	C909.127136,473.960022 914.596313,473.945404 920.532715,473.959351 
	C921.000000,486.020905 921.000000,498.041779 921.000000,510.531342 
z"/>
<path fill="#3C8577" opacity="1.000000" stroke="none" 
	d="
M900.468872,993.000000 
	C899.672913,990.559631 899.345825,988.119202 898.885803,984.974854 
	C898.834900,977.363586 898.916870,970.456177 898.998901,963.548828 
	C897.360352,957.251038 901.091492,952.167542 903.269409,946.479675 
	C909.476135,949.551392 915.238098,952.775696 921.000000,956.000000 
	C921.000000,968.239441 921.000000,980.478821 921.000000,993.000000 
	C914.315247,993.000000 907.626526,993.000000 900.468872,993.000000 
z"/>
<path fill="#8C9AAD" opacity="1.000000" stroke="none" 
	d="
M921.000000,339.531342 
	C913.233826,340.000000 905.467651,340.000000 896.486389,340.000000 
	C904.812866,325.448120 912.587891,311.860046 920.681458,298.135986 
	C921.000000,311.687561 921.000000,325.375122 921.000000,339.531342 
z"/>
<path fill="#5EC5B4" opacity="1.000000" stroke="none" 
	d="
M921.000000,955.531372 
	C915.238098,952.775696 909.476135,949.551392 903.414917,946.149780 
	C906.295166,936.174194 912.171936,928.321289 920.662842,922.055298 
	C921.000000,933.020874 921.000000,944.041809 921.000000,955.531372 
z"/>
<path fill="#72B3A9" opacity="1.000000" stroke="none" 
	d="
M1.000000,79.250000 
	C27.268196,78.997017 53.536976,78.906281 79.803986,79.081184 
	C83.970528,79.108925 85.131340,77.889656 85.099831,73.758537 
	C84.917305,49.819283 85.009293,25.877930 85.004196,1.468643 
	C85.000000,1.000000 85.500000,1.000000 85.750000,1.000000 
	C86.000000,27.109875 86.000000,53.219749 86.000000,79.966057 
	C57.752251,79.966057 29.844524,79.966057 1.468398,79.983032 
	C1.000000,80.000000 1.000000,79.500000 1.000000,79.250000 
z"/>
<path fill="#030203" opacity="1.000000" stroke="none" 
	d="
M58.132973,275.830566 
	C46.966969,254.899628 46.577660,233.599899 55.654465,212.577057 
	C65.937431,188.760681 84.147705,173.031967 110.179916,169.901871 
	C144.810135,165.737930 172.821808,177.260086 189.310638,214.410934 
	C203.142197,245.574722 189.923874,285.453979 160.076813,303.639160 
	C133.853043,319.616730 107.312080,317.595612 81.674423,301.511566 
	C71.670570,295.235535 64.205132,286.345398 58.132973,275.830566 
M126.235596,277.119629 
	C127.723381,276.989899 129.257843,277.051331 130.691788,276.701141 
	C146.661209,272.801300 158.834656,257.444092 158.483810,241.730072 
	C158.121445,225.500366 145.194305,209.997772 129.283554,206.846207 
	C106.199875,202.273834 86.287636,218.149460 86.185570,242.421768 
	C86.103134,262.024628 102.908600,278.993774 126.235596,277.119629 
z"/>
<path fill="#030303" opacity="1.000000" stroke="none" 
	d="
M772.003052,374.000000 
	C772.003052,383.978973 772.003052,393.457977 772.003052,403.224670 
	C753.066284,403.224670 734.353821,403.224670 715.401733,403.224670 
	C715.401733,391.022522 715.401733,379.093658 715.401733,366.705292 
	C721.056702,366.705292 726.796631,366.705292 732.891907,366.705292 
	C732.891907,342.345856 732.891907,318.439880 732.891907,293.845245 
	C744.495911,293.845245 755.749878,293.712921 766.997070,293.929321 
	C770.191467,293.990814 771.990417,296.275482 771.998596,299.619843 
	C772.012817,305.439148 772.002808,311.258545 772.002869,317.077881 
	C772.002930,335.885254 772.002991,354.692627 772.003052,374.000000 
z"/>
<path fill="#60C7B6" opacity="1.000000" stroke="none" 
	d="
M355.287506,848.010010 
	C355.287842,843.206360 355.287842,838.900085 355.287842,833.329224 
	C361.559387,833.329224 367.456299,833.265991 373.350922,833.353088 
	C376.831940,833.404480 380.307465,833.773193 383.788910,833.858582 
	C389.639191,834.002258 392.434875,836.520630 392.979034,842.369690 
	C393.071167,843.360107 393.002136,844.365906 393.002258,845.364563 
	C393.003143,853.671326 393.002777,861.978027 393.002777,870.704041 
	C380.514038,870.704041 368.308868,870.704041 355.287170,870.704041 
	C355.287170,863.349548 355.287170,855.928528 355.287506,848.010010 
z"/>
<path fill="#6CA7E3" opacity="1.000000" stroke="none" 
	d="
M158.967499,45.998684 
	C158.967560,38.897526 158.967560,32.296120 158.967560,25.419209 
	C171.424850,25.419209 183.305130,25.419209 195.497650,25.419209 
	C195.497650,37.820847 195.497650,50.034431 195.497650,62.627899 
	C183.514130,62.627899 171.641190,62.627899 158.967422,62.627899 
	C158.967422,57.320866 158.967422,51.909653 158.967499,45.998684 
z"/>
<path fill="#EF8C9B" opacity="1.000000" stroke="none" 
	d="
M229.996078,30.215816 
	C230.893753,28.531153 231.769165,26.285387 232.691422,26.265989 
	C244.131989,26.025373 255.579391,26.108772 267.399963,26.108772 
	C267.399963,38.481693 267.399963,50.488811 267.399963,62.978436 
	C255.898178,62.978436 244.640244,63.173016 233.410477,62.699352 
	C232.189743,62.647861 230.248627,58.776031 230.153702,56.609959 
	C229.775635,47.983997 229.996490,39.331783 229.996078,30.215816 
z"/>
<path fill="#60C7B6" opacity="1.000000" stroke="none" 
	d="
M733.996338,252.893082 
	C733.996521,242.800461 733.996521,233.194611 733.996521,222.872070 
	C747.045715,222.872070 758.754883,222.872070 770.761292,222.872070 
	C770.761292,234.805099 770.761292,246.892929 770.761292,259.367371 
	C758.674866,259.367371 746.635010,259.367371 733.996216,259.367371 
	C733.996216,257.265594 733.996216,255.322723 733.996338,252.893082 
z"/>
<path fill="#F9DA62" opacity="1.000000" stroke="none" 
	d="
M104.580734,386.273987 
	C104.211502,373.908966 104.211502,361.819092 104.211502,349.146667 
	C114.743507,349.146667 125.171371,349.075195 135.594406,349.266968 
	C136.544159,349.284454 138.155457,350.900024 138.289673,351.926453 
	C139.770264,363.249695 141.019058,374.603210 142.400070,386.549103 
	C129.427353,386.549103 117.188652,386.549103 104.580734,386.273987 
z"/>
<path fill="#EF8B9A" opacity="1.000000" stroke="none" 
	d="
M295.016785,834.100098 
	C303.465179,834.100281 311.417236,834.100281 319.733826,834.100281 
	C319.733826,846.775879 319.733826,858.978088 319.733826,871.164429 
	C309.247772,871.164429 298.809753,871.676270 288.503357,870.739624 
	C286.400635,870.548584 283.477081,865.023071 283.209137,861.769104 
	C282.475830,852.864136 282.956512,843.859070 282.956512,834.099976 
	C287.009064,834.099976 290.764771,834.099976 295.016785,834.100098 
z"/>
<path fill="#6AA5E3" opacity="1.000000" stroke="none" 
	d="
M803.002563,944.948486 
	C810.446655,944.948425 817.391479,944.948425 824.566528,944.948425 
	C824.566528,957.262207 824.566528,968.985291 824.566528,980.982605 
	C812.145935,980.982605 800.043152,980.982605 787.485352,980.982605 
	C787.485352,969.251709 787.485352,957.537048 787.485352,944.948547 
	C792.343689,944.948547 797.423584,944.948547 803.002563,944.948486 
z"/>
<path fill="#5EC6B5" opacity="1.000000" stroke="none" 
	d="
M63.482155,546.006836 
	C65.628418,547.752197 68.713531,549.431824 68.795532,551.247192 
	C69.266228,561.666443 69.024574,572.117920 69.024574,582.835266 
	C56.606464,582.835266 44.677998,582.835266 32.313416,582.835266 
	C32.313416,570.798645 32.313416,558.756897 32.313416,546.003723 
	C42.509991,546.003723 52.771984,546.003723 63.482155,546.006836 
z"/>
<path fill="#69A5E3" opacity="1.000000" stroke="none" 
	d="
M118.077873,545.883545 
	C125.533539,545.883362 132.501053,545.883362 139.868469,545.883362 
	C139.868469,558.353333 139.868469,570.386230 139.868469,582.770386 
	C127.699684,582.770386 115.648857,582.770386 103.144669,582.770386 
	C103.144669,572.491150 102.903679,562.377625 103.249023,552.284119 
	C103.415115,547.429810 107.941086,546.791626 111.609428,545.970825 
	C113.514008,545.544678 115.590744,545.887939 118.077873,545.883545 
z"/>
<path fill="#F9D960" opacity="1.000000" stroke="none" 
	d="
M771.106995,165.006516 
	C771.107056,172.791962 771.107056,180.079117 771.107056,188.069336 
	C760.106262,188.069336 749.531067,188.142120 738.961365,187.935333 
	C738.086914,187.918228 736.634521,186.086212 736.490112,184.963791 
	C735.075562,173.962967 733.881714,162.933746 732.569763,151.426361 
	C745.532532,151.426361 757.892395,151.426361 771.106934,151.426361 
	C771.106934,155.700317 771.106934,160.104263 771.106995,165.006516 
z"/>
<path fill="#F9D960" opacity="1.000000" stroke="none" 
	d="
M740.984802,981.199707 
	C732.523254,981.199951 724.558350,981.199951 716.186218,981.199951 
	C716.186218,969.037659 716.186218,957.328491 716.186218,945.218262 
	C728.268494,945.218262 740.294800,945.218262 752.616089,945.218262 
	C752.616089,957.153137 752.616089,968.876587 752.616089,981.199524 
	C748.712585,981.199524 745.097046,981.199524 740.984802,981.199707 
z"/>
<path fill="#4A81D7" opacity="1.000000" stroke="none" 
	d="
M642.047729,572.213135 
	C625.057434,582.155029 608.100342,592.154297 591.070068,602.027283 
	C552.866577,624.175049 514.590820,646.198547 476.433044,668.424683 
	C469.085419,672.704529 462.412659,672.800537 454.954956,668.467834 
	C399.250153,636.104980 343.425598,603.948303 287.646149,571.713806 
	C281.887390,568.385864 278.918518,563.644104 278.928436,556.681946 
	C278.983307,518.192383 278.796631,479.702423 278.759552,441.212555 
	C278.757538,439.119568 279.357178,437.026031 279.784668,434.063782 
	C279.951721,429.814636 280.010864,426.434479 280.456482,423.030975 
	C283.886566,423.680817 286.930206,424.354034 289.985779,425.016174 
	C289.997681,425.005127 289.991119,425.037201 290.121643,425.365723 
	C291.157196,425.804932 292.062225,425.915619 292.980896,426.019135 
	C292.994568,426.011932 292.993011,426.042786 293.084473,426.396606 
	C294.785980,427.265137 296.396088,427.779816 298.273254,428.510040 
	C300.337494,429.530853 302.102478,430.419342 303.936798,431.128357 
	C318.928619,436.923157 333.915527,442.731384 348.942108,448.435059 
	C355.874329,451.066315 362.891724,453.473175 370.042023,456.316223 
	C373.597504,457.411133 373.745575,459.853424 373.747833,462.745819 
	C373.773041,494.897766 373.897797,527.049622 373.994507,559.201477 
	C373.999817,560.962646 373.995178,562.723755 373.995178,564.548279 
	C386.602325,564.548279 398.505157,564.548279 411.057190,564.548279 
	C411.057190,541.045349 411.057190,517.850769 411.057190,494.731140 
	C423.091217,494.731140 434.466614,494.731140 446.300842,494.731140 
	C446.300842,518.242737 446.300842,541.327637 446.300842,564.544189 
	C458.669647,564.544189 470.565826,564.544189 482.944244,564.544189 
	C482.944244,562.111633 482.907074,559.979492 482.950043,557.848999 
	C483.305084,540.236877 483.675049,522.625000 484.416718,505.056976 
	C492.885345,507.405945 500.977753,509.711029 509.197235,512.355835 
	C517.854309,515.691833 517.854187,515.691833 517.881958,524.564026 
	C517.918823,536.356689 517.947388,548.149414 518.002869,559.941956 
	C518.010315,561.516602 518.154602,563.090515 518.230286,564.563843 
	C530.753601,564.563843 542.643127,564.563843 555.028381,564.563843 
	C555.028381,557.161316 554.908203,550.052551 555.086670,542.951355 
	C555.159485,540.054810 555.879761,537.174561 556.686646,534.502014 
	C564.316956,537.432373 571.634460,539.979492 578.802307,542.894714 
	C599.160034,551.174377 619.455933,559.606018 639.778320,567.972717 
	C641.712952,568.769226 643.548340,569.591064 642.047729,572.213135 
z"/>
<path fill="#4A81D8" opacity="1.000000" stroke="none" 
	d="
M280.104614,353.951630 
	C283.153198,351.015594 285.763763,347.329163 289.315857,345.255768 
	C345.065033,312.714966 400.977814,280.454437 456.724060,247.908646 
	C463.594513,243.897522 469.366669,244.841339 475.762054,248.554153 
	C523.265442,276.131989 570.843018,303.582214 618.395447,331.075562 
	C626.295105,335.642883 634.050964,340.481964 642.120178,344.725983 
	C649.593994,348.656769 652.949097,354.314392 652.535034,362.804565 
	C652.073120,372.277435 652.272583,381.783386 652.220459,391.275177 
	C652.130859,407.594177 652.069275,423.913300 651.678955,441.029388 
	C651.333252,452.290009 651.304504,462.753601 651.265015,473.671692 
	C651.198914,478.921875 651.252014,483.722046 651.055359,488.511993 
	C650.883423,492.699249 650.430420,496.874969 649.752441,501.030212 
	C640.350525,497.386993 631.317505,493.718903 622.241028,490.161743 
	C599.885498,481.400360 577.510010,472.689911 555.058228,463.499359 
	C554.973938,425.507416 554.973938,387.975128 554.973938,350.358063 
	C542.182861,350.358063 530.133301,350.358063 517.697815,350.358063 
	C517.697815,352.663666 517.717407,354.635895 517.694946,356.607635 
	C517.352905,386.705780 517.005371,416.803894 516.312988,446.863220 
	C506.286987,443.544128 496.607147,440.263855 486.849487,436.618652 
	C483.335388,434.899017 482.642151,432.382751 482.668396,428.800323 
	C482.818542,408.308746 482.669769,387.815033 482.628571,367.322021 
	C482.617310,361.710785 482.626892,356.099457 482.626892,350.277466 
	C445.839813,350.277466 409.946747,350.277466 372.674805,350.277466 
	C372.674805,363.346954 372.674805,376.146118 372.313934,388.918579 
	C367.278717,387.244568 362.577789,385.668671 357.934692,383.937531 
	C338.372253,376.643921 318.827057,369.304016 299.052582,361.690002 
	C297.895874,361.257599 296.962158,361.116211 296.015015,360.983398 
	C296.001587,360.991974 296.010315,360.960876 295.913635,360.609924 
	C294.218903,359.830017 292.620819,359.401031 291.011963,358.984802 
	C291.001129,358.997559 291.011749,358.965485 290.876343,358.642456 
	C289.840118,358.205200 288.939331,358.090942 288.024780,357.978210 
	C288.011047,357.979767 288.004486,357.952911 287.938232,357.604431 
	C285.282837,356.154480 282.693726,355.053070 280.104614,353.951630 
z"/>
<path fill="#6CA5E3" opacity="1.000000" stroke="none" 
	d="
M555.142517,463.958984 
	C577.510010,472.689911 599.885498,481.400360 622.241028,490.161743 
	C631.317505,493.718903 640.350525,497.386993 649.742310,501.447388 
	C650.384033,503.641327 650.847290,505.382172 650.959961,507.145447 
	C651.315125,512.701660 651.538757,518.266174 651.813354,523.827515 
	C651.875854,536.099976 652.292969,548.385681 651.837646,560.638916 
	C651.637390,566.030457 647.571716,569.653442 642.391235,572.117432 
	C643.548340,569.591064 641.712952,568.769226 639.778320,567.972717 
	C619.455933,559.606018 599.160034,551.174377 578.802307,542.894714 
	C571.634460,539.979492 564.316956,537.432373 556.852783,534.224976 
	C556.132629,532.219360 555.193726,530.707703 555.187500,529.192261 
	C555.098755,507.448120 555.135742,485.703491 555.142517,463.958984 
z"/>
<path fill="#6AA5E3" opacity="1.000000" stroke="none" 
	d="
M299.275574,361.981018 
	C318.827057,369.304016 338.372253,376.643921 357.934692,383.937531 
	C362.577789,385.668671 367.278717,387.244568 372.375366,389.387817 
	C373.116791,401.019287 373.621765,412.153473 373.699707,423.290680 
	C373.769531,433.262482 373.315521,443.237061 373.213257,453.211670 
	C373.187561,455.714783 372.198944,456.521759 369.870483,455.981812 
	C362.891724,453.473175 355.874329,451.066315 348.942108,448.435059 
	C333.915527,442.731384 318.928619,436.923157 303.936798,431.128357 
	C302.102478,430.419342 300.337494,429.530853 298.136536,428.158997 
	C296.152802,427.075897 294.572906,426.559326 292.993011,426.042786 
	C292.993011,426.042786 292.994568,426.011932 292.807709,425.725098 
	C291.744263,425.304596 290.867706,425.170898 289.991119,425.037201 
	C289.991119,425.037201 289.997681,425.005127 289.814209,424.709656 
	C286.786194,423.263428 283.941711,422.112610 280.858643,420.617035 
	C280.375549,412.231903 280.130951,404.191528 279.940308,395.672180 
	C279.992371,383.832520 280.023438,372.471619 279.945953,361.111481 
	C279.936523,359.724396 279.344421,358.341278 279.022308,356.956329 
	C279.095398,356.355316 279.168457,355.754333 279.723938,355.299622 
	C282.805756,356.281555 285.405121,357.117218 288.004486,357.952881 
	C288.004486,357.952911 288.011047,357.979767 288.198059,358.269806 
	C289.260620,358.695068 290.136200,358.830261 291.011749,358.965485 
	C291.011749,358.965485 291.001129,358.997559 291.183319,359.290527 
	C292.913788,360.042603 294.462036,360.501740 296.010315,360.960876 
	C296.010315,360.960876 296.001587,360.991974 296.211304,361.286041 
	C297.372528,361.713745 298.324036,361.847382 299.275574,361.981018 
z"/>
<path fill="#FAFCFE" opacity="1.000000" stroke="none" 
	d="
M651.853516,523.373779 
	C651.538757,518.266174 651.315125,512.701660 650.959961,507.145447 
	C650.847290,505.382172 650.384033,503.641327 650.091431,501.472992 
	C650.430420,496.874969 650.883423,492.699249 651.055359,488.511993 
	C651.252014,483.722046 651.198914,478.921875 651.395630,473.665497 
	C651.536865,473.204865 651.790283,473.135010 651.790283,473.135010 
	C651.824707,489.730011 651.859192,506.324982 651.853516,523.373779 
z"/>
<path fill="#FAFCFE" opacity="1.000000" stroke="none" 
	d="
M279.886353,396.151184 
	C280.130951,404.191528 280.375549,412.231903 280.748016,420.897247 
	C280.607300,422.032928 280.338654,422.543640 280.070007,423.054321 
	C280.010864,426.434479 279.951721,429.814636 279.875885,433.659241 
	C279.525482,432.632080 278.907532,431.141235 278.903473,429.648773 
	C278.873840,418.753418 278.967529,407.857758 279.270966,396.516541 
	C279.519653,396.070923 279.886353,396.151184 279.886353,396.151184 
z"/>
<path fill="#96C0EB" opacity="1.000000" stroke="none" 
	d="
M279.940308,395.672180 
	C279.886353,396.151184 279.519653,396.070923 279.332733,396.053833 
	C279.041046,383.320404 278.936249,370.604034 278.926880,357.421997 
	C279.344421,358.341278 279.936523,359.724396 279.945953,361.111481 
	C280.023438,372.471619 279.992371,383.832520 279.940308,395.672180 
z"/>
<path fill="#96C0EB" opacity="1.000000" stroke="none" 
	d="
M651.895752,472.664917 
	C651.790283,473.135010 651.536865,473.204865 651.406250,473.211060 
	C651.304504,462.753601 651.333252,452.290009 651.580200,441.499908 
	C651.865967,451.513885 651.933594,461.854370 651.895752,472.664917 
z"/>
<path fill="#96C0EB" opacity="1.000000" stroke="none" 
	d="
M287.938232,357.604401 
	C285.405121,357.117218 282.805756,356.281555 279.995117,355.138672 
	C279.783844,354.831421 279.880768,354.369171 279.992676,354.160400 
	C282.693726,355.053070 285.282837,356.154480 287.938232,357.604401 
z"/>
<path fill="#D9CFBA" opacity="1.000000" stroke="none" 
	d="
M120.371902,707.453308 
	C119.424774,706.037537 118.696304,704.440918 117.590469,702.950806 
	C118.480400,702.104065 119.747688,701.150757 121.353195,699.942993 
	C125.348518,706.870483 129.202881,713.553589 133.063263,720.596313 
	C130.457428,717.403198 127.789223,713.890015 125.257156,710.281372 
	C123.956169,708.427246 122.898178,706.402588 121.470413,704.021423 
	C121.082802,705.453613 120.836685,706.363037 120.371902,707.453308 
z"/>
<path fill="#D9CFBA" opacity="1.000000" stroke="none" 
	d="
M136.267090,726.580261 
	C135.058029,725.176208 133.961639,723.423340 132.958160,721.307129 
	C134.160645,722.706299 135.270187,724.468933 136.267090,726.580261 
z"/>
<path fill="#D9CFBA" opacity="1.000000" stroke="none" 
	d="
M142.155945,736.665649 
	C141.366837,735.889465 140.645477,734.774048 139.975891,733.301636 
	C140.759644,734.071838 141.491653,735.199219 142.155945,736.665649 
z"/>
<path fill="#D9CFBA" opacity="1.000000" stroke="none" 
	d="
M139.204193,731.611877 
	C138.390976,730.850525 137.656860,729.750427 136.987488,728.294189 
	C137.795929,729.049744 138.539597,730.161377 139.204193,731.611877 
z"/>
<path fill="#D9CFBA" opacity="1.000000" stroke="none" 
	d="
M142.387146,737.623779 
	C142.330872,737.597290 142.243652,737.403748 142.067261,737.074219 
	C142.293716,736.979248 142.419754,737.152039 142.387146,737.623779 
z"/>
<path fill="#D9CFBA" opacity="1.000000" stroke="none" 
	d="
M140.048035,732.677734 
	C139.740051,732.816650 139.417206,732.645813 139.088593,732.175232 
	C139.399628,732.039612 139.716415,732.203735 140.048035,732.677734 
z"/>
<path fill="#D9CFBA" opacity="1.000000" stroke="none" 
	d="
M137.096222,727.642883 
	C136.750900,727.791565 136.423264,727.617798 136.116211,727.135010 
	C136.462494,726.990845 136.788193,727.155640 137.096222,727.642883 
z"/>
<path fill="#FCFCFD" opacity="1.000000" stroke="none" 
	d="
M122.957375,983.451782 
	C122.101036,980.842529 119.793236,980.226624 117.047256,980.025085 
	C111.621468,979.626892 106.207947,979.061523 100.391846,978.528870 
	C100.391846,966.624573 100.391846,954.655579 100.391846,942.241516 
	C107.081688,942.241516 113.657509,942.241516 120.567696,942.241516 
	C120.864876,940.483093 121.100212,939.090576 121.632919,937.464111 
	C122.006554,938.681519 122.082809,940.132935 122.163116,941.661316 
	C126.362419,942.203003 130.282333,942.708679 134.586563,943.263977 
	C134.586563,954.931946 134.586563,966.593811 134.586563,978.429504 
	C131.608582,978.942261 128.641281,979.202820 125.853699,980.052734 
	C124.693123,980.406616 123.915451,982.016479 122.957375,983.451782 
z"/>
<path fill="#100C05" opacity="1.000000" stroke="none" 
	d="
M122.405373,908.070557 
	C114.831963,907.547119 107.674469,906.945740 100.395027,906.334106 
	C100.395027,894.348938 100.395027,882.966431 100.395027,871.005005 
	C106.032333,870.720520 111.560188,870.441528 117.869102,870.151489 
	C119.137802,870.082764 119.625435,870.025085 120.113075,869.967407 
	C124.979744,870.513733 129.846405,871.060120 134.896759,871.627136 
	C134.896759,883.209656 134.896759,894.432800 134.896759,905.882690 
	C130.801697,906.598206 126.811501,907.295410 122.405373,908.070557 
z"/>
<path fill="#0D0A03" opacity="1.000000" stroke="none" 
	d="
M207.117783,956.007324 
	C207.117783,963.628967 207.117783,970.751465 207.117783,978.106812 
	C195.328842,978.106812 184.049637,978.106812 172.384979,978.106812 
	C172.384979,966.612061 172.384979,955.062988 172.384979,943.195801 
	C183.701843,943.195801 195.098038,943.195801 207.117783,943.195801 
	C207.117783,947.297363 207.117783,951.402771 207.117783,956.007324 
z"/>
<path fill="#F8DBA0" opacity="1.000000" stroke="none" 
	d="
M120.075226,869.502441 
	C119.625435,870.025085 119.137802,870.082764 118.290314,870.045044 
	C118.309929,846.622925 118.689392,823.296387 119.293793,799.491333 
	C119.518723,799.012939 119.948692,799.036133 119.948700,799.036133 
	C119.978256,822.369934 120.007812,845.703735 120.075226,869.502441 
z"/>
<path fill="#F9DA62" opacity="1.000000" stroke="none" 
	d="
M119.972015,798.564575 
	C119.948692,799.036133 119.518723,799.012939 119.304535,799.025269 
	C119.070732,771.355652 119.051132,743.673767 119.037750,715.531494 
	C119.358093,716.636108 119.942467,718.200439 119.946030,719.766052 
	C120.005516,745.874878 119.992325,771.983948 119.972015,798.564575 
z"/>
<path fill="#0F0C04" opacity="1.000000" stroke="none" 
	d="
M54.942081,978.003418 
	C45.862286,978.003418 37.273262,978.003418 28.491737,978.003418 
	C28.491737,966.096558 28.491737,954.726013 28.491737,943.121948 
	C39.989662,943.121948 51.212486,943.121948 62.720154,943.121948 
	C62.720154,954.628235 62.720154,966.007446 62.720154,978.003357 
	C60.286003,978.003357 57.859428,978.003357 54.942081,978.003418 
z"/>
<path fill="#FCFDFE" opacity="1.000000" stroke="none" 
	d="
M753.001709,20.965050 
	C758.456970,20.962677 763.413879,20.962677 768.701904,20.962677 
	C768.701904,32.636665 768.701904,44.017231 768.701904,55.700497 
	C757.001831,55.700497 745.434753,55.700497 733.368103,55.700497 
	C734.262817,44.922272 735.064331,34.247028 736.174866,23.604034 
	C736.276184,22.633022 738.310791,21.215879 739.529968,21.126286 
	C743.835083,20.809914 748.176025,20.981113 753.001709,20.965050 
z"/>
<path fill="#030303" opacity="1.000000" stroke="none" 
	d="
M49.263790,31.984085 
	C49.263847,35.787048 49.263847,39.092239 49.263847,42.701122 
	C37.553036,42.701122 26.161858,42.701122 14.612146,42.701122 
	C14.612146,31.881886 14.612146,21.156481 14.612146,9.699838 
	C26.158194,8.751373 37.332615,7.833437 49.263733,6.853341 
	C49.263733,15.332977 49.263733,23.409645 49.263790,31.984085 
z"/>
<path fill="#8D9CB0" opacity="1.000000" stroke="none" 
	d="
M898.624512,963.598145 
	C898.916870,970.456177 898.834900,977.363586 898.726685,984.625000 
	C897.065491,977.899963 895.612305,970.816895 898.624512,963.598145 
z"/>
<path fill="#8D9CB0" opacity="1.000000" stroke="none" 
	d="
M125.790405,277.272949 
	C102.908600,278.993774 86.103134,262.024628 86.185570,242.421768 
	C86.287636,218.149460 106.199875,202.273834 129.283554,206.846207 
	C145.194305,209.997772 158.121445,225.500366 158.483810,241.730072 
	C158.834656,257.444092 146.661209,272.801300 130.691788,276.701141 
	C129.257843,277.051331 127.723381,276.989899 125.790405,277.272949 
z"/>
<path fill="#FBFCFF" opacity="1.000000" stroke="none" 
	d="
M370.042023,456.316223 
	C372.198944,456.521759 373.187561,455.714783 373.213257,453.211670 
	C373.315521,443.237061 373.769531,433.262482 373.699707,423.290680 
	C373.621765,412.153473 373.116791,401.019287 372.736237,389.414551 
	C372.674805,376.146118 372.674805,363.346954 372.674805,350.277466 
	C409.946747,350.277466 445.839813,350.277466 482.626892,350.277466 
	C482.626892,356.099457 482.617310,361.710785 482.628571,367.322021 
	C482.669769,387.815033 482.818542,408.308746 482.668396,428.800323 
	C482.642151,432.382751 483.335388,434.899017 486.414429,436.648560 
	C483.404633,436.662415 482.646698,437.904022 482.705078,440.437439 
	C483.201172,461.961487 483.607361,483.487610 484.040497,505.013092 
	C483.675049,522.625000 483.305084,540.236877 482.950043,557.848999 
	C482.907074,559.979492 482.944244,562.111633 482.944244,564.544189 
	C470.565826,564.544189 458.669647,564.544189 446.300842,564.544189 
	C446.300842,541.327637 446.300842,518.242737 446.300842,494.731140 
	C434.466614,494.731140 423.091217,494.731140 411.057190,494.731140 
	C411.057190,517.850769 411.057190,541.045349 411.057190,564.548279 
	C398.505157,564.548279 386.602325,564.548279 373.995178,564.548279 
	C373.995178,562.723755 373.999817,560.962646 373.994507,559.201477 
	C373.897797,527.049622 373.773041,494.897766 373.747833,462.745819 
	C373.745575,459.853424 373.597504,457.411133 370.042023,456.316223 
M445.949585,416.020416 
	C445.949585,406.129120 445.949585,396.237854 445.949585,386.317017 
	C433.985443,386.317017 422.625275,386.317017 411.256653,386.317017 
	C411.256653,392.235626 411.100861,397.847748 411.376587,403.438599 
	C411.438202,404.687805 413.014191,405.862274 413.929993,407.719971 
	C412.982788,408.938171 411.254333,410.127533 411.208069,411.379028 
	C410.693512,425.303284 410.426666,439.236908 410.138672,453.168915 
	C410.116211,454.255157 410.437042,455.348511 410.641876,456.733124 
	C421.363434,456.733124 431.808105,456.665527 442.250977,456.772186 
	C445.607361,456.806458 445.941772,454.966492 445.915863,452.306366 
	C445.800842,440.514435 445.793671,428.721466 445.949585,416.020416 
z"/>
<path fill="#FAFCFE" opacity="1.000000" stroke="none" 
	d="
M555.058228,463.499359 
	C555.135742,485.703491 555.098755,507.448120 555.187500,529.192261 
	C555.193726,530.707703 556.132629,532.219360 556.471680,534.009827 
	C555.879761,537.174561 555.159485,540.054810 555.086670,542.951355 
	C554.908203,550.052551 555.028381,557.161316 555.028381,564.563843 
	C542.643127,564.563843 530.753601,564.563843 518.230286,564.563843 
	C518.154602,563.090515 518.010315,561.516602 518.002869,559.941956 
	C517.947388,548.149414 517.918823,536.356689 517.881958,524.564026 
	C517.854187,515.691833 517.854309,515.691833 509.615173,512.346375 
	C512.419983,512.310181 514.933899,512.623169 518.273376,513.038940 
	C517.724243,490.540985 517.191711,468.721497 516.659180,446.902008 
	C517.005371,416.803894 517.352905,386.705780 517.694946,356.607635 
	C517.717407,354.635895 517.697815,352.663666 517.697815,350.358063 
	C530.133301,350.358063 542.182861,350.358063 554.973938,350.358063 
	C554.973938,387.975128 554.973938,425.507416 555.058228,463.499359 
z"/>
<path fill="#6CA6E3" opacity="1.000000" stroke="none" 
	d="
M516.312988,446.863220 
	C517.191711,468.721497 517.724243,490.540985 518.273376,513.038940 
	C514.933899,512.623169 512.419983,512.310181 509.488098,512.006653 
	C500.977753,509.711029 492.885345,507.405945 484.416748,505.056976 
	C483.607361,483.487610 483.201172,461.961487 482.705078,440.437439 
	C482.646698,437.904022 483.404633,436.662415 486.492249,437.013489 
	C496.607147,440.263855 506.286987,443.544128 516.312988,446.863220 
z"/>
<path fill="#96C0EB" opacity="1.000000" stroke="none" 
	d="
M280.456482,423.030975 
	C280.338654,422.543640 280.607300,422.032928 280.986572,421.242035 
	C283.941711,422.112610 286.786194,423.263428 289.802277,424.720703 
	C286.930206,424.354034 283.886566,423.680817 280.456482,423.030975 
z"/>
<path fill="#96C0EB" opacity="1.000000" stroke="none" 
	d="
M293.084473,426.396606 
	C294.572906,426.559326 296.152802,427.075897 297.869415,427.943481 
	C296.396088,427.779816 294.785980,427.265137 293.084473,426.396606 
z"/>
<path fill="#96C0EB" opacity="1.000000" stroke="none" 
	d="
M290.121643,425.365723 
	C290.867706,425.170898 291.744263,425.304596 292.794037,425.732300 
	C292.062225,425.915619 291.157196,425.804932 290.121643,425.365723 
z"/>
<path fill="#96C0EB" opacity="1.000000" stroke="none" 
	d="
M295.913635,360.609924 
	C294.462036,360.501740 292.913788,360.042603 291.194153,359.277771 
	C292.620819,359.401031 294.218903,359.830017 295.913635,360.609924 
z"/>
<path fill="#96C0EB" opacity="1.000000" stroke="none" 
	d="
M299.052582,361.690002 
	C298.324036,361.847382 297.372528,361.713745 296.224731,361.277466 
	C296.962158,361.116211 297.895874,361.257599 299.052582,361.690002 
z"/>
<path fill="#96C0EB" opacity="1.000000" stroke="none" 
	d="
M290.876343,358.642456 
	C290.136200,358.830261 289.260620,358.695068 288.211792,358.268250 
	C288.939331,358.090942 289.840118,358.205200 290.876343,358.642456 
z"/>
<path fill="#6EA7E3" opacity="1.000000" stroke="none" 
	d="
M445.747498,416.928864 
	C445.793671,428.721466 445.800842,440.514435 445.915863,452.306366 
	C445.941772,454.966492 445.607361,456.806458 442.250977,456.772186 
	C431.808105,456.665527 421.363434,456.733124 410.641876,456.733124 
	C410.437042,455.348511 410.116211,454.255157 410.138672,453.168915 
	C410.426666,439.236908 410.693512,425.303284 411.208069,411.379028 
	C411.254333,410.127533 412.982788,408.938171 414.278839,407.420898 
	C416.144073,408.046021 417.549286,409.364716 419.195374,409.828522 
	C428.013000,412.312805 436.890594,414.584045 445.747498,416.928864 
z"/>
<path fill="#4A81D8" opacity="1.000000" stroke="none" 
	d="
M445.848541,416.474640 
	C436.890594,414.584045 428.013000,412.312805 419.195374,409.828522 
	C417.549286,409.364716 416.144073,408.046021 414.260315,407.096497 
	C413.014191,405.862274 411.438202,404.687805 411.376587,403.438599 
	C411.100861,397.847748 411.256653,392.235626 411.256653,386.317017 
	C422.625275,386.317017 433.985443,386.317017 445.949585,386.317017 
	C445.949585,396.237854 445.949585,406.129120 445.848541,416.474640 
z"/>
</svg>